<?xml version="1.0" encoding="iso-8859-1"?>
<!-- Generator: Adobe Illustrator 18.1.1, SVG Export Plug-In . SVG Version: 6.00 Build 0)  -->
<svg version="1.1" id="&#x56FE;&#x5C42;_1" xmlns="http://www.w3.org/2000/svg" xmlns:xlink="http://www.w3.org/1999/xlink" x="0px"
	 y="0px" viewBox="-183 320.89 228.711 200" style="enable-background:new -183 320.89 228.711 200;" xml:space="preserve">
<path d="M45.711,342.367v41.174v20.587v41.174c0,11.369-6.396,20.587-14.286,20.587h-142.857c-7.889,0-14.286-20.587-14.286-20.587
	v-41.174v-20.587v-41.174c0-11.369,6.396-20.587,14.286-20.587H31.425C39.314,321.78,45.711,342.367,45.711,342.367z
	 M-68.289,380.78h-42.857v28.571h42.857V380.78z M-68.289,337.923h-42.857v28.571h42.857V337.923z M-25.432,380.78h-28.571v28.571
	h28.571V380.78z M-25.432,337.923h-28.571v28.571h28.571V337.923z M31.711,380.78h-42.857v28.571h42.857V380.78z M31.711,366.494
	v-28.571h-42.857v28.571H31.711z M-68.289,423.637h-42.857v28.571h42.857V423.637z M-25.432,423.637h-28.571v28.571h28.571V423.637z
	 M31.711,423.637h-42.857v28.571h42.857V423.637z M-183,449.461l42.857,28.571v14.286L-183,520.89V449.461z"/>
</svg>
