<?xml version="1.0" encoding="iso-8859-1"?>
<!-- Generator: Adobe Illustrator 18.1.1, SVG Export Plug-In . SVG Version: 6.00 Build 0)  -->
<svg version="1.1" id="&#x56FE;&#x5C42;_1" xmlns="http://www.w3.org/2000/svg" xmlns:xlink="http://www.w3.org/1999/xlink" x="0px"
	 y="0px" viewBox="-183 320.89 228.711 200" style="enable-background:new -183 320.89 228.711 200;" xml:space="preserve">
<path d="M-168.714,376.78h142.857c7.889,0,14.286,9.218,14.286,20.587v41.174v20.587v41.174c0,0-6.396,20.587-14.286,20.587
	h-142.857c-7.889,0-14.286-9.218-14.286-20.587v-41.174v-20.587v-41.174C-183,397.367-176.604,376.78-168.714,376.78z M-69,464.351
	h42.857V435.78H-69V464.351z M-69,421.494h42.857v-28.571H-69V421.494z M-111.857,464.351h28.571V435.78h-28.571V464.351z
	 M-111.857,421.494h28.571v-28.571h-28.571V421.494z M-169,464.351h42.857V435.78H-169V464.351z M-126.143,421.494v-28.571H-169
	v28.571H-126.143z M-69,507.209h42.857v-28.571H-69V507.209z M-111.857,507.209h28.571v-28.571h-28.571V507.209z M-169,507.209
	h42.857v-28.571H-169V507.209z M45.571,320.89L17,363.747H2.714l-28.571-42.857H45.571z"/>
</svg>
