<?xml version="1.0" standalone="no"?><!DOCTYPE svg PUBLIC "-//W3C//DTD SVG 1.1//EN" "http://www.w3.org/Graphics/SVG/1.1/DTD/svg11.dtd"><svg t="1512386571649" class="icon" style="" viewBox="0 0 1024 1024" version="1.1" xmlns="http://www.w3.org/2000/svg" p-id="1228" xmlns:xlink="http://www.w3.org/1999/xlink" width="200" height="200"><defs><style type="text/css"></style></defs><path d="M789.751935 484.401238a37.500578 37.500578 0 0 0-6.911369-43.772005L519.312613 177.165274a37.244601 37.244601 0 0 0-52.667194-0.383965L175.983941 467.378792a37.116613 37.116613 0 0 0-7.807287 40.508303c10.559036-10.879007 29.757285-17.790377 56.954803-18.750289l508.945558-17.5344c26.237606-0.895918 44.987895 3.83965 55.67492 12.798832zM473.4288 131.281461L373.597909 31.45057a18.558307 18.558307 0 0 1 0.447959-25.917635 18.558307 18.558307 0 0 1 25.981629-0.447959l178.799685 178.799685 230.378978 230.378977c29.181337 29.245331 29.309326 76.473022 0.383965 105.462377l-290.661477 290.597483a74.553197 74.553197 0 0 1-105.462377-0.319971L150.002312 546.475574a74.617191 74.617191 0 0 1-0.383965-105.462376L440.279824 150.479709a73.593285 73.593285 0 0 1 33.21297-19.198248z m0 0a74.873168 74.873168 0 0 1 72.313401 19.518219l33.084981 33.084981 33.084981 33.148975a18.558307 18.558307 0 0 1-0.383965 25.917635 18.558307 18.558307 0 0 1-25.981629 0.447959L473.4288 131.281461z m387.996595 576.779368c0 34.684835-27.709472 62.714277-61.882353 62.714278a62.330312 62.330312 0 0 1-61.818359-62.714278c0-34.620841 61.818359-118.773162 61.818359-118.773161s61.882353 84.152321 61.882353 118.773161zM0 896.011679h1023.906569v127.988321H0v-127.988321z" p-id="1229"></path></svg>