<?xml version="1.0" standalone="no"?><!DOCTYPE svg PUBLIC "-//W3C//DTD SVG 1.1//EN" "http://www.w3.org/Graphics/SVG/1.1/DTD/svg11.dtd"><svg t="1512388078287" class="icon" style="" viewBox="0 0 1024 1024" version="1.1" xmlns="http://www.w3.org/2000/svg" p-id="951" xmlns:xlink="http://www.w3.org/1999/xlink" width="200" height="200"><defs><style type="text/css"></style></defs><path d="M512 128 448 128 64 128l0 384 0 64 0 384 384 0 64 0 384 0L896 576 896 512 896 128 512 128zM128 192l320 0 0 320L128 512 128 192zM128 896 128 576l320 0 0 320L128 896zM832 896 512 896 512 576l320 0L832 896zM512 512 512 192l320 0 0 320L512 512z" p-id="952"></path></svg>