<?xml version="1.0" encoding="utf-8"?>
<!-- Generator: Adobe Illustrator 21.0.0, SVG Export Plug-In . SVG Version: 6.00 Build 0)  -->
<svg version="1.1" id="图层_1" xmlns="http://www.w3.org/2000/svg" xmlns:xlink="http://www.w3.org/1999/xlink" x="0px" y="0px"
	 viewBox="0 0 200 200" style="enable-background:new 0 0 200 200;" xml:space="preserve">
<path d="M12.5,175H25v12.5H12.5V175z"/>
<path d="M12.5,75H25v12.5H12.5V75z"/>
<path d="M12.5,25H25v12.5H12.5V25z"/>
<path d="M62.5,25H75v12.5H62.5V25z"/>
<path d="M37.5,25H50v12.5H37.5V25z"/>
<path d="M87.5,25H100v12.5H87.5V25z"/>
<path d="M112.5,25H125v12.5h-12.5V25z"/>
<path d="M137.5,25H150v12.5h-12.5V25z"/>
<path d="M162.5,25H175v12.5h-12.5V25z"/>
<path d="M162.5,50H175v12.5h-12.5V50z"/>
<path d="M162.5,75H175v12.5h-12.5V75z"/>
<path d="M162.5,100H175v12.5h-12.5V100z"/>
<path d="M37.5,175H50v12.5H37.5V175z"/>
<path d="M62.5,175H75v12.5H62.5V175z"/>
<path d="M87.5,175H100v12.5H87.5V175z"/>
<path d="M137.5,175H150v12.5h-12.5V175z"/>
<path d="M12.5,50H25v12.5H12.5V50z"/>
<path d="M12.5,100H25v12.5H12.5V100z"/>
<path d="M162.5,125H175v12.5h-12.5V125z"/>
<path d="M162.5,150H175v12.5h-12.5V150z"/>
<path d="M162.5,175H175v12.5h-12.5V175z"/>
<path d="M12.5,125H25v12.5H12.5V125z"/>
<path d="M12.5,150H25v12.5H12.5V150z"/>
<path d="M112.5,175H125v12.5h-12.5V175z"/>
</svg>
