<?xml version="1.0" standalone="no"?><!DOCTYPE svg PUBLIC "-//W3C//DTD SVG 1.1//EN" "http://www.w3.org/Graphics/SVG/1.1/DTD/svg11.dtd"><svg t="1512388123094" class="icon" style="" viewBox="0 0 1024 1024" version="1.1" xmlns="http://www.w3.org/2000/svg" p-id="1330" xmlns:xlink="http://www.w3.org/1999/xlink" width="200" height="200"><defs><style type="text/css"></style></defs><path d="M192 512l64 0 0 64-64 0 0-64Z" p-id="1331"></path><path d="M320 512l64 0 0 64-64 0 0-64Z" p-id="1332"></path><path d="M448 384l64 0 0 64-64 0 0-64Z" p-id="1333"></path><path d="M704 512l64 0 0 64-64 0 0-64Z" p-id="1334"></path><path d="M576 512l64 0 0 64-64 0 0-64Z" p-id="1335"></path><path d="M448 640l64 0 0 64-64 0 0-64Z" p-id="1336"></path><path d="M448 256l64 0 0 64-64 0 0-64Z" p-id="1337"></path><path d="M448 512l64 0 0 64-64 0 0-64Z" p-id="1338"></path><path d="M448 768l64 0 0 64-64 0 0-64Z" p-id="1339"></path><path d="M832 192l0 704L128 896 128 192 832 192M896 128 64 128l0 832 832 0L896 128 896 128z" p-id="1340"></path></svg>