<?xml version="1.0" standalone="no"?><!DOCTYPE svg PUBLIC "-//W3C//DTD SVG 1.1//EN" "http://www.w3.org/Graphics/SVG/1.1/DTD/svg11.dtd"><svg t="1512388134554" class="icon" style="" viewBox="0 0 1024 1024" version="1.1" xmlns="http://www.w3.org/2000/svg" p-id="1448" xmlns:xlink="http://www.w3.org/1999/xlink" width="200" height="200"><defs><style type="text/css"></style></defs><path d="M832 640l64 0 0 64-64 0 0-64Z" p-id="1449"></path><path d="M832 768l64 0 0 64-64 0 0-64Z" p-id="1450"></path><path d="M448 768l64 0 0 64-64 0 0-64Z" p-id="1451"></path><path d="M448 640l64 0 0 64-64 0 0-64Z" p-id="1452"></path><path d="M576 512l64 0 0 64-64 0 0-64Z" p-id="1453"></path><path d="M832 512l64 0 0 64-64 0 0-64Z" p-id="1454"></path><path d="M64 896l832 0 0 64-832 0 0-64Z" p-id="1455"></path><path d="M448 256l64 0 0 64-64 0 0-64Z" p-id="1456"></path><path d="M832 384l64 0 0 64-64 0 0-64Z" p-id="1457"></path><path d="M448 384l64 0 0 64-64 0 0-64Z" p-id="1458"></path><path d="M832 256l64 0 0 64-64 0 0-64Z" p-id="1459"></path><path d="M832 128l64 0 0 64-64 0 0-64Z" p-id="1460"></path><path d="M704 128l64 0 0 64-64 0 0-64Z" p-id="1461"></path><path d="M576 128l64 0 0 64-64 0 0-64Z" p-id="1462"></path><path d="M320 512l64 0 0 64-64 0 0-64Z" p-id="1463"></path><path d="M448 128l64 0 0 64-64 0 0-64Z" p-id="1464"></path><path d="M64 768l64 0 0 64-64 0 0-64Z" p-id="1465"></path><path d="M64 640l64 0 0 64-64 0 0-64Z" p-id="1466"></path><path d="M64 512l64 0 0 64-64 0 0-64Z" p-id="1467"></path><path d="M64 256l64 0 0 64-64 0 0-64Z" p-id="1468"></path><path d="M704 512l64 0 0 64-64 0 0-64Z" p-id="1469"></path><path d="M448 512l64 0 0 64-64 0 0-64Z" p-id="1470"></path><path d="M320 128l64 0 0 64-64 0 0-64Z" p-id="1471"></path><path d="M192 128l64 0 0 64-64 0 0-64Z" p-id="1472"></path><path d="M64 128l64 0 0 64-64 0 0-64Z" p-id="1473"></path><path d="M192 512l64 0 0 64-64 0 0-64Z" p-id="1474"></path><path d="M64 384l64 0 0 64-64 0 0-64Z" p-id="1475"></path></svg>