<?xml version="1.0" standalone="no"?><!DOCTYPE svg PUBLIC "-//W3C//DTD SVG 1.1//EN" "http://www.w3.org/Graphics/SVG/1.1/DTD/svg11.dtd"><svg t="1512388063218" class="icon" style="" viewBox="0 0 1024 1024" version="1.1" xmlns="http://www.w3.org/2000/svg" p-id="822" xmlns:xlink="http://www.w3.org/1999/xlink" width="200" height="200"><defs><style type="text/css"></style></defs><path d="M64 896l64 0 0 64-64 0 0-64Z" p-id="823"></path><path d="M64 384l64 0 0 64-64 0 0-64Z" p-id="824"></path><path d="M64 128l64 0 0 64-64 0 0-64Z" p-id="825"></path><path d="M320 128l64 0 0 64-64 0 0-64Z" p-id="826"></path><path d="M192 128l64 0 0 64-64 0 0-64Z" p-id="827"></path><path d="M576 128l64 0 0 64-64 0 0-64Z" p-id="828"></path><path d="M704 128l64 0 0 64-64 0 0-64Z" p-id="829"></path><path d="M832 128l64 0 0 64-64 0 0-64Z" p-id="830"></path><path d="M832 256l64 0 0 64-64 0 0-64Z" p-id="831"></path><path d="M832 384l64 0 0 64-64 0 0-64Z" p-id="832"></path><path d="M192 896l64 0 0 64-64 0 0-64Z" p-id="833"></path><path d="M320 896l64 0 0 64-64 0 0-64Z" p-id="834"></path><path d="M704 896l64 0 0 64-64 0 0-64Z" p-id="835"></path><path d="M64 256l64 0 0 64-64 0 0-64Z" p-id="836"></path><path d="M832 640l64 0 0 64-64 0 0-64Z" p-id="837"></path><path d="M832 768l64 0 0 64-64 0 0-64Z" p-id="838"></path><path d="M832 896l64 0 0 64-64 0 0-64Z" p-id="839"></path><path d="M64 640l64 0 0 64-64 0 0-64Z" p-id="840"></path><path d="M64 768l64 0 0 64-64 0 0-64Z" p-id="841"></path><path d="M576 896l64 0 0 64-64 0 0-64Z" p-id="842"></path><path d="M896 512 512 512 512 128 448 128 448 512 64 512 64 576 448 576 448 960 512 960 512 576 896 576Z" p-id="843"></path></svg>