<?xml version="1.0" standalone="no"?><!DOCTYPE svg PUBLIC "-//W3C//DTD SVG 1.1//EN" "http://www.w3.org/Graphics/SVG/1.1/DTD/svg11.dtd"><svg t="1512388009324" class="icon" style="" viewBox="0 0 1024 1024" version="1.1" xmlns="http://www.w3.org/2000/svg" p-id="1048" xmlns:xlink="http://www.w3.org/1999/xlink" width="200" height="200"><defs><style type="text/css"></style></defs><path d="M64 896l64 0 0 64-64 0 0-64Z" p-id="1049"></path><path d="M64 384l64 0 0 64-64 0 0-64Z" p-id="1050"></path><path d="M64 128l64 0 0 64-64 0 0-64Z" p-id="1051"></path><path d="M320 128l64 0 0 64-64 0 0-64Z" p-id="1052"></path><path d="M192 128l64 0 0 64-64 0 0-64Z" p-id="1053"></path><path d="M192 512l64 0 0 64-64 0 0-64Z" p-id="1054"></path><path d="M320 512l64 0 0 64-64 0 0-64Z" p-id="1055"></path><path d="M448 384l64 0 0 64-64 0 0-64Z" p-id="1056"></path><path d="M448 128l64 0 0 64-64 0 0-64Z" p-id="1057"></path><path d="M704 512l64 0 0 64-64 0 0-64Z" p-id="1058"></path><path d="M576 128l64 0 0 64-64 0 0-64Z" p-id="1059"></path><path d="M576 512l64 0 0 64-64 0 0-64Z" p-id="1060"></path><path d="M704 128l64 0 0 64-64 0 0-64Z" p-id="1061"></path><path d="M832 128l64 0 0 64-64 0 0-64Z" p-id="1062"></path><path d="M832 256l64 0 0 64-64 0 0-64Z" p-id="1063"></path><path d="M832 384l64 0 0 64-64 0 0-64Z" p-id="1064"></path><path d="M448 640l64 0 0 64-64 0 0-64Z" p-id="1065"></path><path d="M832 512l64 0 0 64-64 0 0-64Z" p-id="1066"></path><path d="M192 896l64 0 0 64-64 0 0-64Z" p-id="1067"></path><path d="M320 896l64 0 0 64-64 0 0-64Z" p-id="1068"></path><path d="M448 896l64 0 0 64-64 0 0-64Z" p-id="1069"></path><path d="M704 896l64 0 0 64-64 0 0-64Z" p-id="1070"></path><path d="M64 256l64 0 0 64-64 0 0-64Z" p-id="1071"></path><path d="M448 256l64 0 0 64-64 0 0-64Z" p-id="1072"></path><path d="M64 512l64 0 0 64-64 0 0-64Z" p-id="1073"></path><path d="M448 512l64 0 0 64-64 0 0-64Z" p-id="1074"></path><path d="M832 640l64 0 0 64-64 0 0-64Z" p-id="1075"></path><path d="M832 768l64 0 0 64-64 0 0-64Z" p-id="1076"></path><path d="M832 896l64 0 0 64-64 0 0-64Z" p-id="1077"></path><path d="M64 640l64 0 0 64-64 0 0-64Z" p-id="1078"></path><path d="M64 768l64 0 0 64-64 0 0-64Z" p-id="1079"></path><path d="M448 768l64 0 0 64-64 0 0-64Z" p-id="1080"></path><path d="M576 896l64 0 0 64-64 0 0-64Z" p-id="1081"></path></svg>