<?xml version="1.0" standalone="no"?><!DOCTYPE svg PUBLIC "-//W3C//DTD SVG 1.1//EN" "http://www.w3.org/Graphics/SVG/1.1/DTD/svg11.dtd"><svg t="1512454756227" class="icon" style="" viewBox="0 0 1024 1024" version="1.1" xmlns="http://www.w3.org/2000/svg" p-id="1315" xmlns:xlink="http://www.w3.org/1999/xlink" width="200" height="200"><defs><style type="text/css"></style></defs><path d="M79.605 254.093v-107.776l178.196 107.777v-87.543h508.398v87.541l178.195-107.774v107.774h54.734v-229.815h-54.734v107.774l-178.194-107.775v87.541h-508.398v-87.541l-178.196 107.774v-107.774h-54.733v229.815zM24.872 949.045c-0.384 2.326-0.594 4.709-0.594 7.145 0 24.043 19.491 43.533 43.532 43.533h888.379c24.043 0 43.532-19.491 43.532-43.533 0-2.434-0.21-4.819-0.594-7.145v-499.589c0.377-2.16 0.593-4.648 0.594-7.186 0-24.001-19.49-43.492-43.532-43.492v-0.308l-888.379 0.309c-24.043 0-43.532 19.491-43.532 43.532 0 2.434 0.21 4.819 0.594 7.145v499.589zM109.924 453.364c0.013-0.053 0.023-0.107 0.037-0.161h804.081c0.013 0.053 0.023 0.107 0.037 0.161 0.969-0.104 1.955-0.161 2.952-0.161 15.114 0 27.366 12.252 27.366 27.367 0 1.213-0.087 2.405-0.239 3.574 0.079 0.023 0.161 0.038 0.239 0.059v430.089c-0.067 0.018-0.136 0.032-0.203 0.050 0.129 1.003 0.202 2.164 0.203 3.341 0 15.051-12.253 27.304-27.366 27.304-0.969 0-1.925-0.052-2.868-0.15-0.013 0.049-0.021 0.101-0.036 0.151h-804.252c-0.013-0.049-0.021-0.101-0.035-0.15-0.861 0.095-1.86 0.149-2.871 0.148-15.111 0-27.363-12.252-27.364-27.365 0.003-1.178 0.078-2.335 0.222-3.47-0.086 0.172-0.156 0.16-0.222 0.141v-430.089c0.079-0.021 0.161-0.037 0.239-0.059-0.152-1.172-0.239-2.363-0.239-3.574 0-15.115 12.253-27.367 27.366-27.367 0.998 0 1.982 0.057 2.952 0.161z" fill="" p-id="1316"></path></svg>