<?xml version="1.0" standalone="no"?><!DOCTYPE svg PUBLIC "-//W3C//DTD SVG 1.1//EN" "http://www.w3.org/Graphics/SVG/1.1/DTD/svg11.dtd"><svg t="1512529636402" class="icon" style="" viewBox="0 0 1171 1024" version="1.1" xmlns="http://www.w3.org/2000/svg" p-id="2156" xmlns:xlink="http://www.w3.org/1999/xlink" width="228.7109375" height="200"><defs><style type="text/css"></style></defs><path d="M1097.142857 1024 365.714286 1024C325.321143 1024 292.571429 991.250286 292.571429 950.857143L292.571429 804.571429 292.571429 731.428571 292.571429 585.142857C292.571429 585.142857 325.321143 512 365.714286 512L1097.142857 512C1137.536 512 1170.285714 544.749714 1170.285714 585.142857L1170.285714 731.428571 1170.285714 804.571429 1170.285714 950.857143C1170.285714 950.857143 1137.536 1024 1097.142857 1024ZM585.142857 585.142857 365.714286 585.142857 365.714286 731.428571 585.142857 731.428571 585.142857 585.142857ZM585.142857 804.571429 365.714286 804.571429 365.714286 950.857143 585.142857 950.857143 585.142857 804.571429ZM804.571429 585.142857 658.285714 585.142857 658.285714 731.428571 804.571429 731.428571 804.571429 585.142857ZM804.571429 804.571429 658.285714 804.571429 658.285714 950.857143 804.571429 950.857143 804.571429 804.571429ZM1097.142857 585.142857 877.714286 585.142857 877.714286 731.428571 1097.142857 731.428571 1097.142857 585.142857ZM877.714286 804.571429 877.714286 950.857143 1097.142857 950.857143 1097.142857 804.571429 877.714286 804.571429ZM1097.142857 292.571429 365.714286 292.571429C325.321143 292.571429 292.571429 259.821714 292.571429 219.428571L292.571429 73.142857C292.571429 73.142857 325.321143 0 365.714286 0L1097.142857 0C1137.536 0 1170.285714 32.749714 1170.285714 73.142857L1170.285714 219.428571C1170.285714 219.428571 1137.536 292.571429 1097.142857 292.571429ZM585.142857 73.142857 365.714286 73.142857 365.714286 219.428571 585.142857 219.428571 585.142857 73.142857ZM804.571429 73.142857 658.285714 73.142857 658.285714 219.428571 804.571429 219.428571 804.571429 73.142857ZM1097.142857 73.142857 877.714286 73.142857 877.714286 219.428571 1097.142857 219.428571 1097.142857 73.142857ZM0 219.428571 219.428571 365.714286 219.428571 438.857143 0 585.142857 0 219.428571Z" p-id="2157"></path></svg>