<?xml version="1.0" standalone="no"?><!DOCTYPE svg PUBLIC "-//W3C//DTD SVG 1.1//EN" "http://www.w3.org/Graphics/SVG/1.1/DTD/svg11.dtd"><svg t="1512529645032" class="icon" style="" viewBox="0 0 1024 1024" version="1.1" xmlns="http://www.w3.org/2000/svg" p-id="2268" xmlns:xlink="http://www.w3.org/1999/xlink" width="200" height="200"><defs><style type="text/css"></style></defs><path d="M896 1024 768 1024C768 1024 704 995.344 704 960L704 320C704 284.656 732.656 256 768 256L896 256C931.344 256 960 284.656 960 320L960 960C960 995.344 931.344 1024 896 1024ZM896 320 768 320 768 512 896 512 896 320ZM896 576 768 576 768 704 896 704 896 576ZM896 768 768 768 768 960 896 960 896 768ZM576 192 448 0 768 0 640 192 576 192ZM512 320 512 960C512 995.344 483.344 1024 448 1024L320 1024 256 1024 128 1024C128 1024 64 995.344 64 960L64 320C64 284.656 92.656 256 128 256L256 256 320 256 448 256C483.344 256 512 284.656 512 320ZM448 576 320 576 320 704 448 704 448 576ZM448 960 448 768 320 768 320 960 448 960ZM256 320 128 320 128 512 256 512 256 320ZM256 576 128 576 128 704 256 704 256 576ZM256 768 128 768 128 960 256 960 256 768ZM320 512 448 512 448 320 320 320 320 512Z" p-id="2269"></path></svg>