<?xml version="1.0" standalone="no"?><!DOCTYPE svg PUBLIC "-//W3C//DTD SVG 1.1//EN" "http://www.w3.org/Graphics/SVG/1.1/DTD/svg11.dtd"><svg t="1512386003806" class="icon" style="" viewBox="0 0 1024 1024" version="1.1" xmlns="http://www.w3.org/2000/svg" p-id="791" xmlns:xlink="http://www.w3.org/1999/xlink" width="200" height="200"><defs><style type="text/css"></style></defs><path d="M736.860612 419.221079 736.860612 483.125475 282.434683 483.125475 282.434683 419.221079 154.625891 516.030185 282.434683 612.353863 282.434683 547.487077 736.860612 547.487077 736.860612 612.353863 863.246986 516.030185Z" p-id="792"></path><path d="M25.400325 30.601747 25.400325 995.777416l967.554833 0L992.955158 30.601747 25.400325 30.601747zM87.882303 94.497677l387.682342 0 0 130.647984L87.882303 225.145661 87.882303 94.497677zM928.570978 288.573095l0 451.586738L89.301899 740.159832 89.301899 288.573095 928.570978 288.573095zM475.564645 934.70939 87.882303 934.70939l0-129.228388 387.682342 0L475.564645 934.70939zM929.990574 934.70939 542.308233 934.70939l0-129.228388L929.990574 805.481002 929.990574 934.70939zM932.364093 225.145661 542.285654 225.145661 542.285654 94.497677l390.072794 0L932.364093 225.145661 932.364093 225.145661z" p-id="793"></path></svg>