<?xml version="1.0" standalone="no"?><!DOCTYPE svg PUBLIC "-//W3C//DTD SVG 1.1//EN" "http://www.w3.org/Graphics/SVG/1.1/DTD/svg11.dtd"><svg t="1512455611075" class="icon" style="" viewBox="0 0 1024 1024" version="1.1" xmlns="http://www.w3.org/2000/svg" p-id="1335" xmlns:xlink="http://www.w3.org/1999/xlink" width="200" height="200"><defs><style type="text/css"></style></defs><path d="M960 1024 640 1024C604.656 1024 576 995.344 576 960L576 704 640 704 640 960 960 960 960 64 640 64 640 320 576 320 576 64C576 64 604.656 0 640 0L960 0C995.344 0 1024 28.656 1024 64L1024 960C1024 960 995.344 1024 960 1024ZM256 576 128 576 128 448 256 448 256 320 448 512 256 704 256 576ZM384 64 64 64 64 960 384 960 384 704 448 704 448 960C448 960 419.344 1024 384 1024L64 1024C28.656 1024 0 995.344 0 960L0 64C0 64 28.656 0 64 0L384 0C419.344 0 448 28.656 448 64L448 320 384 320 384 64ZM576 512 768 320 768 448 896 448 896 576 768 576 768 704 576 512Z" p-id="1336"></path></svg>