<?xml version="1.0" encoding="utf-8"?>
<!-- Generator: Adobe Illustrator 18.1.1, SVG Export Plug-In . SVG Version: 6.00 Build 0)  -->
<svg version="1.1" id="图层_1" xmlns="http://www.w3.org/2000/svg" xmlns:xlink="http://www.w3.org/1999/xlink" x="0px" y="0px"
	 viewBox="-205 297 200 200" enable-background="new -205 297 200 200" xml:space="preserve">
<path d="M-5,309.5V372c0,6.9-5.6,12.5-12.5,12.5h-50V372h50v-62.5h-175V372h50v12.5h-50c0,0-12.5-5.6-12.5-12.5v-62.5
	c0-6.9,5.6-12.5,12.5-12.5h175C-17.5,297-5,302.6-5,309.5z M-92.5,447v25h-25v-25h-25l37.5-37.5l37.5,37.5H-92.5z M-192.5,422v62.5
	h175V422h-50v-12.5h50c0,0,12.5,5.6,12.5,12.5v62.5c0,6.9-5.6,12.5-12.5,12.5h-175c0,0-12.5-5.6-12.5-12.5V422
	c0-6.9,5.6-12.5,12.5-12.5h50V422H-192.5z M-105,384.5l-37.5-37.5h25v-25h25v25h25L-105,384.5z"/>
</svg>
