<?xml version="1.0" standalone="no"?><!DOCTYPE svg PUBLIC "-//W3C//DTD SVG 1.1//EN" "http://www.w3.org/Graphics/SVG/1.1/DTD/svg11.dtd"><svg t="1547517208470" class="icon" style="" viewBox="0 0 1024 1024" version="1.1" xmlns="http://www.w3.org/2000/svg" p-id="6180" xmlns:xlink="http://www.w3.org/1999/xlink" width="200" height="200"><defs><style type="text/css"></style></defs><path d="M987.175385 404.923077h-116.578462a36.726154 36.726154 0 0 1-34.166154-23.138462v-0.541538a36.726154 36.726154 0 0 1 8.123077-39.729231l84.578462-84.578461a36.824615 36.824615 0 0 0 0-52.086154l-104.763077-104.566154a36.824615 36.824615 0 0 0-52.086154 0l-82.461539 82.461538a36.873846 36.873846 0 0 1-40.566153 7.827693h-0.443077a36.873846 36.873846 0 0 1-22.35077-33.87077V36.824615A36.824615 36.824615 0 0 0 589.636923 0h-147.692308a36.824615 36.824615 0 0 0-36.824615 36.824615v116.578462a36.726154 36.726154 0 0 1-23.138462 34.166154h-0.541538a36.726154 36.726154 0 0 1-39.729231-8.123077L256.935385 95.064615a36.824615 36.824615 0 0 0-52.086154 0L100.283077 199.630769a36.824615 36.824615 0 0 0 0 52.086154l82.461538 82.461539a36.873846 36.873846 0 0 1 7.827693 40.566153v0.443077a36.873846 36.873846 0 0 1-33.87077 22.35077H36.824615A36.824615 36.824615 0 0 0 0 434.363077v147.692308a36.824615 36.824615 0 0 0 36.824615 36.824615h116.578462a36.726154 36.726154 0 0 1 34.166154 23.138462v0.541538a36.726154 36.726154 0 0 1-8.123077 39.729231l-84.381539 84.775384a36.824615 36.824615 0 0 0 0 52.086154l104.566154 104.566154a36.824615 36.824615 0 0 0 52.086154 0l82.461539-82.461538a36.873846 36.873846 0 0 1 40.566153-7.827693h0.443077a36.873846 36.873846 0 0 1 22.35077 33.87077v119.68a36.824615 36.824615 0 0 0 36.824615 37.021538h147.692308a36.824615 36.824615 0 0 0 36.824615-36.824615v-116.578462a36.726154 36.726154 0 0 1 23.138462-34.166154h0.541538a36.726154 36.726154 0 0 1 39.729231 8.123077l84.578461 84.578462a36.824615 36.824615 0 0 0 52.086154 0l104.566154-104.566154a36.824615 36.824615 0 0 0 0-52.086154l-82.461538-82.461538a36.873846 36.873846 0 0 1-7.827693-40.566154v-0.443077a36.873846 36.873846 0 0 1 33.870769-22.350769h119.68a36.824615 36.824615 0 0 0 36.824616-36.824616v-147.692308a36.824615 36.824615 0 0 0-36.430769-37.218461zM512 704a192 192 0 1 1 192-192 192 192 0 0 1-192 192z" p-id="6181"></path><path d="M513.230769 512m-78.769231 0a78.769231 78.769231 0 1 0 157.538462 0 78.769231 78.769231 0 1 0-157.538462 0Z" p-id="6182"></path></svg>