<?xml version="1.0" standalone="no"?><!DOCTYPE svg PUBLIC "-//W3C//DTD SVG 1.1//EN" "http://www.w3.org/Graphics/SVG/1.1/DTD/svg11.dtd"><svg t="1512387969666" class="icon" style="" viewBox="0 0 1024 1024" version="1.1" xmlns="http://www.w3.org/2000/svg" p-id="822" xmlns:xlink="http://www.w3.org/1999/xlink" width="200" height="200"><defs><style type="text/css"></style></defs><path d="M999.177612 837.176184H178.27106V24.653413c0-13.626017 11.035394-24.652413 24.67341-24.652413 13.638016 0 24.67341 11.026396 24.67341 24.652413v763.217946h771.558732c13.638016 0 24.67341 11.026396 24.67341 24.652412s-11.034394 24.652413-24.67241 24.652413z" p-id="823"></path><path d="M776.772973 239.996079v460.52599H322.175121V239.996079h454.597852m49.34782-49.304826H272.828301v559.135641h553.292492V190.691253zM806.630629 1023.852022c-13.638016 0-24.67341-11.026396-24.67341-24.652413V878.344194h49.34782v120.855415c0 13.626017-11.036394 24.652413-24.67441 24.652413zM0 203.304418c0-13.626017 11.035394-24.652413 24.67341-24.652413h120.958399v49.304826H24.67341C11.035394 227.956831 0 216.930435 0 203.304418z" p-id="824"></path></svg>