<?xml version="1.0" standalone="no"?><!DOCTYPE svg PUBLIC "-//W3C//DTD SVG 1.1//EN" "http://www.w3.org/Graphics/SVG/1.1/DTD/svg11.dtd"><svg t="1512454772643" class="icon" style="" viewBox="0 0 1024 1024" version="1.1" xmlns="http://www.w3.org/2000/svg" p-id="1427" xmlns:xlink="http://www.w3.org/1999/xlink" width="200" height="200"><defs><style type="text/css"></style></defs><path d="M769.907 79.605h107.776l-107.777 178.196h87.543v508.398h-87.541l107.774 178.195h-107.774v54.734h229.815v-54.734h-107.774l107.775-178.194h-87.541v-508.398h87.541l-107.774-178.196h107.774v-54.733h-229.815zM74.955 24.872c-2.326-0.384-4.709-0.594-7.145-0.594-24.043 0-43.533 19.491-43.533 43.532v888.379c0 24.043 19.491 43.532 43.533 43.532 2.434 0 4.819-0.21 7.145-0.594h499.589c2.16 0.377 4.648 0.593 7.186 0.594 24.001 0 43.492-19.49 43.492-43.532h0.308l-0.309-888.379c0-24.043-19.491-43.532-43.532-43.532-2.434 0-4.819 0.21-7.145 0.594h-499.589zM570.636 109.924c0.053 0.013 0.107 0.023 0.161 0.037v804.081c-0.053 0.013-0.107 0.023-0.161 0.037 0.104 0.969 0.161 1.955 0.161 2.952 0 15.114-12.252 27.366-27.367 27.366-1.213 0-2.405-0.087-3.574-0.239-0.023 0.079-0.038 0.161-0.059 0.239h-430.089c-0.018-0.067-0.032-0.136-0.050-0.203-1.003 0.129-2.164 0.202-3.341 0.203-15.051 0-27.304-12.253-27.304-27.366 0-0.969 0.052-1.925 0.15-2.868-0.049-0.013-0.101-0.021-0.151-0.036v-804.252c0.049-0.013 0.101-0.021 0.15-0.035-0.095-0.861-0.149-1.86-0.148-2.871 0-15.111 12.252-27.363 27.365-27.364 1.178 0.003 2.335 0.078 3.47 0.222-0.172-0.086-0.16-0.156-0.141-0.222h430.089c0.021 0.079 0.037 0.161 0.059 0.239 1.172-0.152 2.363-0.239 3.574-0.239 15.115 0 27.367 12.253 27.367 27.366 0 0.998-0.057 1.982-0.161 2.952z" fill="" p-id="1428"></path></svg>