<?xml version="1.0" encoding="utf-8"?>
<!-- Generator: Adobe Illustrator 21.0.0, SVG Export Plug-In . SVG Version: 6.00 Build 0)  -->
<svg version="1.1" id="图层_1" xmlns="http://www.w3.org/2000/svg" xmlns:xlink="http://www.w3.org/1999/xlink" x="0px" y="0px"
	 viewBox="0 0 200 200" style="enable-background:new 0 0 200 200;" xml:space="preserve">
<style type="text/css">
	.st0{fill:#F2F2F2;}
	.st1{fill:none;stroke:#C1CBD5;stroke-width:12;stroke-linejoin:round;}
</style>
<title>table</title>
<g id="_2">
	<path class="st0" d="M20.5,19h125.4c4.6,0,8.3,3.7,8.3,8.3v115.4c0,4.6-3.7,8.3-8.3,8.3H20.5c-4.6,0-8.3-3.7-8.3-8.3V27.3
		C12.2,22.7,15.9,19,20.5,19z"/>
	<path d="M145.8,24.4c1.3,0,2.4,1.1,2.4,2.4V142c0,1.3-1.1,2.4-2.4,2.4H20.5c-1.3,0-2.4-1.1-2.4-2.4V27.5c-0.4-1.3,0.4-2.6,1.7-3
		c0.2-0.1,0.5-0.1,0.7-0.1H145.8 M145.8,12.4H20.5c-8,0-14.4,6.4-14.4,14.4c0,0,0,0,0,0V142c0,8,6.4,14.4,14.4,14.4h125.3
		c8,0,14.4-6.4,14.4-14.4V27.5c0-8-6.4-14.4-14.4-14.4V12.4z"/>
	<path class="st0" d="M51.8,50.5h130.6c4.7,0,8.5,3.8,8.5,8.5v122.6c0,4.6-3.7,8.3-8.3,8.3H51.8c-4.6,0-8.3-3.7-8.3-8.3l0,0V59
		c-0.1-4.6,3.6-8.4,8.2-8.5C51.7,50.5,51.8,50.5,51.8,50.5z"/>
	<path d="M182.4,56.4c1.3,0,2.4,1.1,2.4,2.4v122.6c0,1.3-1.1,2.4-2.4,2.4H51.8c-1.3,0-2.4-1.1-2.4-2.4V59c-0.1-1.3,0.9-2.5,2.2-2.6
		c0.1,0,0.1,0,0.2,0H182.4 M182.4,44.4H51.8c-8,0-14.4,6.4-14.4,14.4l0,0v122.6c0,8,6.4,14.4,14.4,14.4h130.6
		c8,0,14.4-6.4,14.4-14.4V59c0-8-6.4-14.4-14.4-14.4V44.4z"/>
	<line class="st1" x1="49.6" y1="143.1" x2="184.5" y2="143.1"/>
	<line class="st1" x1="115.8" y1="105.7" x2="115.7" y2="183.6"/>
	<rect x="49.8" y="97.4" width="134.7" height="13.8"/>
	<rect x="110.1" y="56.4" width="11.2" height="41"/>
</g>
</svg>
