<?xml version="1.0" encoding="utf-8"?>
<!-- Generator: Adobe Illustrator 21.0.0, SVG Export Plug-In . SVG Version: 6.00 Build 0)  -->
<svg version="1.1" id="图层_1" xmlns="http://www.w3.org/2000/svg" xmlns:xlink="http://www.w3.org/1999/xlink" x="0px" y="0px"
	 viewBox="0 0 200 200" style="enable-background:new 0 0 200 200;" xml:space="preserve">
<style type="text/css">
	.st0{fill:#F2F2F2;}
	.st1{fill:none;stroke:#C1CBD5;stroke-width:12;stroke-linejoin:round;}
</style>
<g id="_2">
	<path class="st0" d="M27.2,38.7h145.4c4.7,0,8.5,3.8,8.5,8.5v122.4c0,4.7-3.8,8.5-8.5,8.5H27.2c-4.7,0-8.5-3.8-8.5-8.5V47.2
		C18.7,42.5,22.5,38.7,27.2,38.7z"/>
	<path d="M172.8,44.3c1.3,0,2.4,1.1,2.4,2.4v122.6c0,1.3-1.1,2.4-2.4,2.4H27.2c-1.3,0-2.4-1.1-2.4-2.4V47c-0.2-1.3,0.7-2.5,2.1-2.7
		c0.1,0,0.2,0,0.3,0H172.8 M172.8,32.3H27.2c-8,0-14.4,6.4-14.4,14.4l0,0v122.6c0,8,6.4,14.4,14.4,14.4h145.6
		c8,0,14.4-6.4,14.4-14.4V47c0-8-6.4-14.4-14.4-14.4V32.3z"/>
	<line class="st1" x1="25.1" y1="131.2" x2="175" y2="131.2"/>
	<line class="st1" x1="100.2" y1="93.7" x2="100" y2="171.8"/>
	<rect x="25.1" y="80.2" width="150.1" height="13.5"/>
	<rect x="92.5" y="44.5" width="13.5" height="35.7"/>
</g>
</svg>
